name Walk10.mot
datacolumns 19
datarows 22
range 1.78000000 1.80100000
endheader

                time	   L_ground_force_vx	   L_ground_force_vy	   L_ground_force_vz	   L_ground_force_px	   L_ground_force_py	   L_ground_force_pz	   R_ground_force_vx	   R_ground_force_vy	   R_ground_force_vz	   R_ground_force_px	   R_ground_force_py	   R_ground_force_pz	   L_ground_torque_x	   L_ground_torque_y	   L_ground_torque_z	   R_ground_torque_x	   R_ground_torque_y	   R_ground_torque_z	
          1.78000000	         -0.00078348	         -0.00458028	         -0.00103756	         -0.00003996	          0.00000000	          0.00000466	        -12.54175369	        372.66101632	        -34.01130411	          0.45642630	          0.00000000	          0.16466441	          0.00000000	          0.00006124	          0.00000000	          0.00000000	          3.41368349	          0.00000000	
          1.78100000	         -0.00126513	         -0.00581554	         -0.00091403	         -0.00003631	          0.00000000	          0.00000419	        -12.41620865	        371.65747354	        -33.80006616	          0.45707586	          0.00000000	          0.16471021	          0.00000000	          0.00005502	          0.00000000	          0.00000000	          3.37768633	          0.00000000	
          1.78200000	         -0.00170104	         -0.00692380	         -0.00079754	         -0.00003282	          0.00000000	          0.00000374	        -12.28978111	        370.71723211	        -33.59418823	          0.45771309	          0.00000000	          0.16475330	          0.00000000	          0.00004912	          0.00000000	          0.00000000	          3.34202049	          0.00000000	
          1.78300000	         -0.00209347	         -0.00791166	         -0.00068794	         -0.00002951	          0.00000000	          0.00000332	        -12.16225121	        369.83951412	        -33.39376026	          0.45833787	          0.00000000	          0.16479372	          0.00000000	          0.00004353	          0.00000000	          0.00000000	          3.30663947	          0.00000000	
          1.78400000	         -0.00244462	         -0.00878564	         -0.00058507	         -0.00002637	          0.00000000	          0.00000292	        -12.03340554	        369.02350853	        -33.19886356	          0.45895008	          0.00000000	          0.16483149	          0.00000000	          0.00003826	          0.00000000	          0.00000000	          3.27149701	          0.00000000	
          1.78500000	         -0.00275668	         -0.00955211	         -0.00048872	         -0.00002340	          0.00000000	          0.00000254	        -11.90303788	        368.26837554	        -33.00957060	          0.45954964	          0.00000000	          0.16486664	          0.00000000	          0.00003329	          0.00000000	          0.00000000	          3.23654694	          0.00000000	
          1.78600000	         -0.00303179	         -0.01021731	         -0.00039873	         -0.00002059	          0.00000000	          0.00000219	        -11.77094993	        367.57325211	        -32.82594475	          0.46013646	          0.00000000	          0.16489921	          0.00000000	          0.00002862	          0.00000000	          0.00000000	          3.20174320	          0.00000000	
          1.78700000	         -0.00327205	         -0.01078735	         -0.00031488	         -0.00001794	          0.00000000	          0.00000186	        -11.63695201	        366.93725733	        -32.64804006	          0.46071050	          0.00000000	          0.16492921	          0.00000000	          0.00002423	          0.00000000	          0.00000000	          3.16704005	          0.00000000	
          1.78800000	         -0.00347951	         -0.01126816	         -0.00023696	         -0.00001545	          0.00000000	          0.00000155	        -11.50086355	        366.35949660	        -32.47590117	          0.46127170	          0.00000000	          0.16495670	          0.00000000	          0.00002013	          0.00000000	          0.00000000	          3.13239237	          0.00000000	
          1.78900000	         -0.00365619	         -0.01166551	         -0.00016478	         -0.00001311	          0.00000000	          0.00000126	        -11.36251350	        365.83906445	        -32.30956314	          0.46182007	          0.00000000	          0.16498169	          0.00000000	          0.00001630	          0.00000000	          0.00000000	          3.09775594	          0.00000000	
          1.79000000	         -0.00380404	         -0.01198499	         -0.00009811	         -0.00001092	          0.00000000	          0.00000099	        -11.22174051	        365.37504655	        -32.14905148	          0.46235559	          0.00000000	          0.16500424	          0.00000000	          0.00001273	          0.00000000	          0.00000000	          3.06308773	          0.00000000	
          1.79100000	         -0.00392493	         -0.01223202	         -0.00003674	         -0.00000888	          0.00000000	          0.00000074	        -11.07839310	        364.96652179	        -31.99438203	          0.46287830	          0.00000000	          0.16502437	          0.00000000	          0.00000942	          0.00000000	          0.00000000	          3.02834605	          0.00000000	
          1.79200000	         -0.00402072	         -0.01241183	          0.00001955	         -0.00000697	          0.00000000	          0.00000051	        -10.93232981	        364.61256471	        -31.84556091	          0.46338825	          0.00000000	          0.16504212	          0.00000000	          0.00000636	          0.00000000	          0.00000000	          2.99349076	          0.00000000	
          1.79300000	         -0.00409317	         -0.01252944	          0.00007098	         -0.00000521	          0.00000000	          0.00000029	        -10.78341950	        364.31224832	        -31.70258456	          0.46388547	          0.00000000	          0.16505754	          0.00000000	          0.00000353	          0.00000000	          0.00000000	          2.95848343	          0.00000000	
          1.79400000	         -0.00414399	         -0.01258971	          0.00011777	         -0.00000357	          0.00000000	          0.00000009	        -10.63154186	        364.06464691	        -31.56543994	          0.46437003	          0.00000000	          0.16507066	          0.00000000	          0.00000093	          0.00000000	          0.00000000	          2.92328752	          0.00000000	
          1.79500000	         -0.00417483	         -0.01259728	          0.00016014	         -0.00000206	          0.00000000	         -0.00000009	        -10.47658786	        363.86883879	        -31.43410489	          0.46484200	          0.00000000	          0.16508152	          0.00000000	         -0.00000146	          0.00000000	          0.00000000	          2.88786852	          0.00000000	
          1.79600000	         -0.00418728	         -0.01255661	          0.00019830	         -0.00000067	          0.00000000	         -0.00000025	        -10.31846013	        363.72390916	        -31.30854859	          0.46530146	          0.00000000	          0.16509014	          0.00000000	         -0.00000363	          0.00000000	          0.00000000	          2.85219413	          0.00000000	
          1.79700000	         -0.00418284	         -0.01247194	          0.00023246	          0.00000061	          0.00000000	         -0.00000040	        -10.15707298	        363.62895306	        -31.18873189	          0.46574849	          0.00000000	          0.16509656	          0.00000000	         -0.00000561	          0.00000000	          0.00000000	          2.81623445	          0.00000000	
          1.79800000	         -0.00416297	         -0.01234735	          0.00026285	          0.00000177	          0.00000000	         -0.00000054	         -9.99235218	        363.58307836	        -31.07460734	          0.46618317	          0.00000000	          0.16510081	          0.00000000	         -0.00000739	          0.00000000	          0.00000000	          2.77996229	          0.00000000	
          1.79900000	         -0.00412907	         -0.01218669	          0.00028965	          0.00000283	          0.00000000	         -0.00000066	         -9.82423462	        363.58540861	        -30.96611882	          0.46660562	          0.00000000	          0.16510292	          0.00000000	         -0.00000900	          0.00000000	          0.00000000	          2.74335337	          0.00000000	
          1.80000000	         -0.00408244	         -0.01199364	          0.00031309	          0.00000379	          0.00000000	         -0.00000077	         -9.65266806	        363.63508567	        -30.86320107	          0.46701594	          0.00000000	          0.16510290	          0.00000000	         -0.00001044	          0.00000000	          0.00000000	          2.70638665	          0.00000000	
          1.80100000	         -0.00402435	         -0.01177169	          0.00033334	          0.00000465	          0.00000000	         -0.00000087	         -9.47761097	        363.73127231	        -30.76577909	          0.46741427	          0.00000000	          0.16510079	          0.00000000	         -0.00001171	          0.00000000	          0.00000000	          2.66904438	          0.00000000	
